<?xml version="1.0" standalone="no"?>
<!DOCTYPE svg PUBLIC "-//W3C//DTD SVG 20010904//EN"
 "http://www.w3.org/TR/2001/REC-SVG-20010904/DTD/svg10.dtd">
<svg version="1.0" xmlns="http://www.w3.org/2000/svg"
 width="576.000000pt" height="576.000000pt" viewBox="0 0 576.000000 576.000000"
 preserveAspectRatio="xMidYMid meet">
<metadata>
Created by potrace 1.14, written by Peter Selinger 2001-2017
</metadata>
<g transform="translate(0.000000,576.000000) scale(0.100000,-0.100000)"
fill="#000000" stroke="none">
<path d="M985 5724 c-192 -16 -395 -61 -560 -125 l-105 -40 0 -110 0 -110 43
26 c142 87 320 154 477 180 52 8 157 15 232 15 637 0 1050 -268 1226 -795 52
-155 92 -394 92 -550 0 -38 3 -87 6 -107 l7 -38 79 0 79 0 -6 208 c-9 317 -25
1160 -25 1299 l0 123 -78 0 -78 0 -22 -45 c-32 -66 -85 -97 -175 -103 -86 -5
-179 11 -448 79 -107 27 -249 58 -314 69 -117 20 -331 32 -430 24z"/>
<path d="M3520 5527 l0 -63 153 -12 c363 -27 512 -120 579 -358 22 -79 22 -82
26 -1027 l3 -947 -1403 3 -1403 3 -108 26 c-379 94 -819 245 -967 332 l-75 44
-3 -226 c-1 -124 1 -229 6 -234 17 -17 316 -134 602 -235 162 -57 354 -127
425 -155 640 -249 941 -544 1005 -987 20 -131 8 -400 -23 -531 -99 -419 -353
-706 -737 -834 -334 -111 -826 -88 -1180 56 -41 17 -81 33 -87 35 -10 4 -13
-19 -13 -95 l0 -101 83 -26 c241 -77 440 -108 692 -108 394 1 708 92 1006 291
337 226 561 564 641 967 26 132 31 393 9 515 -29 162 -98 338 -182 462 -146
214 -346 374 -679 540 l-175 88 1283 0 1283 0 -3 -1087 -3 -1088 -23 -79 c-51
-182 -157 -281 -352 -330 -36 -9 -136 -22 -222 -28 l-158 -12 0 -63 0 -63 960
0 960 0 0 65 0 65 -62 0 c-93 0 -274 19 -348 36 -140 32 -238 101 -285 201
-57 120 -55 21 -55 2328 0 2314 -3 2210 56 2330 73 148 205 206 522 227 l172
12 0 63 0 63 -960 0 -960 0 0 -63z"/>
</g>
</svg>
