<svg width="135" height="135" viewBox="0 0 135 135" fill="none" xmlns="http://www.w3.org/2000/svg">
<path d="M64.966 129.484C64.8975 130.503 63.8893 131.516 62.5483 131.426C61.0258 131.324 60.1713 130.467 60.2999 128.553L60.0065 128.533L59.8635 131.498L60.1428 131.517C60.3685 130.873 61.3273 131.639 62.389 131.71C64.3445 131.841 65.5978 130.522 65.6729 129.405C65.9047 125.955 60.4478 126.977 60.6543 123.904C60.75 122.479 61.7152 121.688 63.0562 121.778C64.928 121.904 65.8307 123.087 65.8286 125.416L66.066 125.432L66.196 122.663L66.2335 122.104L65.9681 122.086C65.6929 123.05 65.1582 121.611 63.1467 121.476C61.3168 121.353 60.0282 122.571 59.9278 124.066C59.7054 127.376 65.1574 126.634 64.966 129.484Z" fill="#D7FF39"/>
<path d="M49.6681 121.621C51.0103 119.835 51.2955 119.791 54.2288 120.526C55.2338 120.778 55.4612 120.965 55.2468 121.821L54.3621 125.352L52.3386 124.845C51.7411 124.695 51.6632 124.257 51.9082 123.279L51.691 123.225L50.9355 126.239L51.1528 126.294C51.3808 125.384 51.6459 124.96 52.2842 125.12L54.294 125.623L53.5012 128.787C53.2902 129.629 52.8759 129.67 51.9932 129.449C49.7389 128.884 49.5081 128.71 49.1663 126.503L48.9185 126.513L49.1579 129.647L49.3888 129.648C49.4502 129.057 49.7082 129.179 50.3872 129.349L55.1131 130.533L55.1744 130.289C54.2916 130.068 54.01 129.81 54.2209 128.968L55.9666 122.001C56.1809 121.145 56.5239 121.044 57.4338 121.272L57.495 121.027L52.0766 119.67C51.4111 119.503 51.1225 119.503 51.3469 118.953L51.1432 118.844L49.4543 121.495L49.6681 121.621Z" fill="#D7FF39"/>
<path d="M39.6475 117.214C41.3059 115.718 41.5943 115.729 44.3333 117.011C45.2716 117.45 45.4591 117.677 45.0853 118.476L43.5426 121.772L41.6532 120.888C41.0953 120.627 41.1025 120.182 41.5297 119.269L41.3268 119.175L40.0096 121.99L40.2124 122.084C40.61 121.235 40.9512 120.869 41.5472 121.148L43.4239 122.026L42.0414 124.981C41.6735 125.767 41.2591 125.727 40.4349 125.342C38.3299 124.357 38.1365 124.143 38.2225 121.911L37.9773 121.873L37.6137 124.995L37.8404 125.04C38.0135 124.472 38.2434 124.641 38.8774 124.938L43.2902 127.002L43.397 126.774C42.5727 126.389 42.3455 126.081 42.7134 125.295L45.7574 118.79C46.1312 117.991 46.4873 117.957 47.3369 118.354L47.4437 118.126L42.3842 115.759C41.7629 115.468 41.4796 115.413 41.8049 114.916L41.6258 114.77L39.4616 117.05L39.6475 117.214Z" fill="#D7FF39"/>
<path d="M19.8219 111.32L20.0228 111.433C20.1366 111.232 20.4857 111.333 20.9626 111.786L24.3816 115.037C24.8585 115.49 24.9953 115.814 24.7811 115.958L24.9049 116.153L27.6033 114.778L27.4791 114.563C25.7259 115.33 25.2736 115.46 24.1475 114.389C23.488 113.762 23.2791 113.332 23.8483 112.733L28.7973 107.529C29.405 106.889 29.8647 107.056 30.5445 107.702L30.7085 107.53L28.1721 105.118L28.0081 105.291C28.7893 106.034 28.8673 106.378 28.2595 107.017L23.3106 112.222C22.7317 112.831 22.2908 112.624 21.6212 111.987C20.495 110.916 20.5922 110.449 21.2802 108.669L21.0594 108.555L19.8219 111.32Z" fill="#D7FF39"/>
<path d="M11.4533 99.2694L13.443 102.149L13.6388 102.013C13.1056 101.242 13.0121 100.762 13.7377 100.26L16.3522 98.4536L19.2732 102.681L16.6587 104.487C15.9331 104.989 15.6047 104.858 14.9919 103.971L14.7961 104.107L16.7859 106.986L16.9817 106.851C16.4484 106.079 16.355 105.599 17.0806 105.098L22.9775 101.023C23.7031 100.521 24.119 100.778 24.6523 101.55L24.8481 101.415L22.8583 98.5353L22.6625 98.6706C23.2754 99.5574 23.2813 99.9107 22.5557 100.412L19.5266 102.505L16.6056 98.2785L19.6347 96.1853C20.3603 95.6838 20.7762 95.941 21.3095 96.7126L21.5053 96.5773L19.5155 93.698L19.3197 93.8333C19.9325 94.7201 19.9384 95.0734 19.2128 95.5748L13.3159 99.6499C12.5903 100.151 12.2619 100.021 11.6491 99.1341L11.4533 99.2694Z" fill="#D7FF39"/>
<path d="M13.5982 86.0755C15.8317 86.0608 16.0396 86.2611 17.233 89.0396C17.6418 89.9915 17.631 90.2857 16.8206 90.6337L13.4761 92.0702L12.6528 90.1535C12.4097 89.5875 12.711 89.2601 13.6372 88.8623L13.5488 88.6565L10.693 89.883L10.7814 90.0888C11.6433 89.7186 12.1414 89.6723 12.4011 90.2769L13.2188 92.1807L10.2215 93.468C9.42399 93.8106 9.14066 93.5056 8.78154 92.6695C7.8644 90.5341 7.86233 90.2455 9.41075 88.6358L9.25251 88.4447L6.90481 90.5349L7.04466 90.7186C7.55179 90.4094 7.61083 90.6887 7.88708 91.3319L9.80976 95.8085L10.0413 95.709C9.68218 94.8729 9.71681 94.4924 10.5144 94.1498L17.1134 91.3155C17.9239 90.9674 18.2126 91.1786 18.5828 92.0405L18.8144 91.941L16.6099 86.8084C16.3392 86.1781 16.1644 85.9484 16.7378 85.7936L16.7008 85.5657L13.5686 85.8292L13.5982 86.0755Z" fill="#D7FF39"/>
<path d="M3.87619 76.5286L4.11307 76.5056C4.02508 75.5998 4.17413 75.1071 5.052 75.0218L12.1864 74.3287C13.0643 74.2434 13.304 74.6843 13.3934 75.6039L13.6303 75.5809L13.2864 72.0416L13.0495 72.0646C13.1592 73.1933 12.9925 73.5049 12.1147 73.5901L9.24417 73.869C9.2413 73.4051 9.31757 73.032 9.22145 72.0427C8.9859 69.6181 7.5602 68.8423 6.06922 68.9872C4.22988 69.1659 3.31707 70.7737 3.51067 72.7663L3.87619 76.5286ZM8.94277 72.0697C9.03889 73.0591 8.96261 73.4322 8.96548 73.8961L4.98025 74.2833C4.10238 74.3686 3.86804 73.9834 3.75161 72.7851C3.59051 71.1269 4.48684 69.9286 6.18683 69.7634C7.59421 69.6267 8.75594 70.1468 8.94277 72.0697Z" fill="#D7FF39"/>
<path d="M8.49039 60.9622C8.40927 59.4199 7.64181 58.2575 6.24911 58.1147C4.84249 57.9705 3.81872 59.0336 3.60168 61.1505L3.21187 64.9526L3.44863 64.9769C3.5443 64.0438 3.78497 63.6181 4.70415 63.7123L11.7791 64.4377C12.6565 64.5277 12.8197 64.9947 12.724 65.9279L12.9608 65.9521L13.3177 62.4704L13.081 62.4461C12.971 63.5185 12.7461 63.791 11.8547 63.6996L8.30336 63.3355L8.45614 61.8453L13.7447 58.3062L13.9306 56.355L13.7078 56.3322C13.585 57.5299 12.893 57.9656 10.564 59.5423L8.49039 60.9622ZM4.77983 62.9742C3.80494 62.8743 3.69565 62.5675 3.7956 61.5926C4.00978 59.5036 5.02714 58.7776 6.23879 58.9018C7.52007 59.0331 8.29466 60.1258 8.12617 61.7692L7.96911 63.3012L4.77983 62.9742Z" fill="#D7FF39"/>
<path d="M9.95797 52.5563C12.7471 53.4861 15.5097 52.0163 16.3863 49.3866C17.1744 47.0225 15.8773 44.0961 13.0882 43.1663C10.2195 42.21 7.52768 43.5115 6.65103 46.1412C5.86293 48.5053 7.04934 51.5867 9.95797 52.5563ZM10.2369 51.7196C7.39468 50.7721 6.23482 48.4079 6.95651 46.2431C7.67377 44.0915 9.96708 43.0556 12.8093 44.003C15.5719 44.924 16.7981 47.1332 16.0809 49.2848C15.3636 51.4364 12.9995 52.6405 10.2369 51.7196Z" fill="#D7FF39"/>
<path d="M10.952 37.0037L11.1601 37.1193C11.6156 36.2993 12.0045 36.0029 12.7755 36.4312L19.8615 40.3676C21.4525 41.2514 21.8496 41.9205 21.5029 42.5446C21.2173 43.0586 20.6775 42.6466 20.3783 43.1851C20.2491 43.4176 20.377 43.6488 20.5973 43.7712C20.9277 43.9547 21.2554 43.6243 21.5138 43.1592C22.2956 41.7518 21.617 40.494 20.1117 39.6578L13.1358 35.7826C12.3648 35.3542 12.3362 35.0021 12.8597 34.0597L12.6517 33.9441L10.952 37.0037Z" fill="#D7FF39"/>
<path d="M25.8293 28.478C26.8865 30.4456 26.8067 30.7229 24.9084 33.0769C24.2581 33.8833 23.993 34.0113 23.3064 33.4576L20.473 31.1727L21.7824 29.5489C22.1691 29.0694 22.5994 29.1826 23.3841 29.8153L23.5247 29.641L21.1053 27.69L20.9647 27.8643C21.6949 28.4531 21.9687 28.8718 21.5557 29.384L20.255 30.9969L17.7158 28.9493C17.0401 28.4044 17.1772 28.0114 17.7484 27.303C19.2073 25.4939 19.4615 25.3572 21.6083 25.9734L21.7032 25.7442L18.758 24.646L18.661 24.8555C19.1714 25.1593 18.9521 25.3421 18.5127 25.887L15.4543 29.6795L15.6505 29.8377C16.2217 29.1293 16.5743 28.982 17.25 29.5269L22.8407 34.0352C23.5272 34.5889 23.4756 34.9429 22.8868 35.6731L23.0829 35.8313L26.5894 31.483C27.0201 30.949 27.1413 30.6871 27.5463 31.1216L27.7305 30.9823L26.0332 28.3367L25.8293 28.478Z" fill="#D7FF39"/>
<path d="M35.3249 20.9981C35.3029 22.4177 35.0538 23.4982 33.8045 24.5359C32.1029 25.9492 29.1634 25.8065 27.3296 23.5988C25.63 21.5526 25.6488 18.7706 27.4796 17.2499C28.1258 16.7132 28.4792 16.547 29.0279 16.4189C29.9621 16.207 30.7737 16.4611 31.8322 17.0561L31.9545 16.8089L29.4387 15.0948L29.3022 15.281C29.5348 15.561 28.2072 16.2634 27.3241 16.9969C25.3533 18.6339 24.9017 21.9027 26.7266 24.0997C28.6498 26.4151 31.7164 26.6889 33.9887 24.8014C35.2057 23.7906 35.5767 22.6816 35.6027 21.0039L35.3249 20.9981Z" fill="#D7FF39"/>
<path d="M41.0628 8.25467L40.8911 8.40903C41.0454 8.58075 40.8396 8.87995 40.2582 9.18803L36.0892 11.397C35.5078 11.7051 35.1577 11.7321 35.0892 11.4832L34.8651 11.5386L35.3116 14.5342L35.5546 14.4846C35.3844 12.5785 35.4046 12.1083 36.7777 11.3808C37.5818 10.9547 38.0564 10.8934 38.4431 11.6233L41.8057 17.9694C42.2187 18.7488 41.9146 19.1317 41.0857 19.5709L41.1972 19.7812L44.2898 18.1425L44.1784 17.9322C43.2259 18.4369 42.8743 18.4014 42.4614 17.622L39.0987 11.2758C38.7055 10.5336 39.0416 10.1812 39.858 9.7486C41.2312 9.02101 41.644 9.26178 43.1131 10.4796L43.2907 10.3063L41.0628 8.25467Z" fill="#D7FF39"/>
<path d="M54.713 10.536L54.8279 11.1269L58.5933 10.3943L58.4784 9.80337L54.713 10.536Z" fill="#D7FF39"/>
<path d="M71.027 5.42063C71.1111 4.4021 72.1346 3.40491 73.474 3.51547C74.9949 3.641 75.8361 4.51115 75.6784 6.42265L75.9714 6.44683L76.1597 3.48428L75.8806 3.46125C75.6451 4.10205 74.6981 3.3215 73.6377 3.23398C71.6844 3.07275 70.4112 4.37242 70.319 5.48862C70.0346 8.9349 75.5064 7.99583 75.253 11.0654C75.1355 12.4886 74.1584 13.2648 72.8189 13.1542C70.9493 12.9999 70.0647 11.8031 70.1024 9.47431L69.8652 9.45474L69.693 12.2219L69.647 12.7801L69.9121 12.8019C70.202 11.8425 70.7147 13.2896 72.7238 13.4554C74.5516 13.6063 75.8586 12.4078 75.9819 10.9148C76.2548 7.60808 70.7921 8.26695 71.027 5.42063Z" fill="#D7FF39"/>
<path d="M86.2034 13.5162C84.8341 15.2808 84.5483 15.3205 81.6265 14.5408C80.6255 14.2736 80.401 14.0833 80.6284 13.2311L81.567 9.71422L83.5824 10.2521C84.1776 10.4109 84.2488 10.8501 83.9889 11.824L84.2053 11.8818L85.0067 8.87886L84.7902 8.8211C84.5484 9.72738 84.2769 10.1476 83.6411 9.97792L81.6392 9.44368L82.4802 6.29198C82.704 5.45333 83.1189 5.41913 83.9981 5.65377C86.2435 6.25298 86.4717 6.42978 86.7797 8.642L87.0277 8.63573L86.8362 5.49827L86.6053 5.49462C86.5349 6.0844 86.2788 5.95809 85.6024 5.77761L80.8952 4.52142L80.8302 4.7649C81.7094 4.99953 81.9871 5.26201 81.7633 6.10066L79.9115 13.0398C79.6841 13.892 79.3396 13.9884 78.4333 13.7466L78.3683 13.9901L83.7655 15.4303C84.4283 15.6072 84.7169 15.6118 84.4841 16.1582L84.6861 16.2701L86.4153 13.6452L86.2034 13.5162Z" fill="#D7FF39"/>
<path d="M96.1557 18.0758C94.4746 19.5464 94.1864 19.5307 91.4674 18.2074C90.5358 17.754 90.3518 17.5243 90.7378 16.7312L92.3307 13.4583L94.2063 14.3711C94.7602 14.6407 94.7462 15.0854 94.3051 15.9918L94.5065 16.0898L95.8666 13.2952L95.6652 13.1972C95.2547 14.0406 94.9079 14.4012 94.3163 14.1133L92.4532 13.2065L93.8807 10.2734C94.2605 9.49298 94.6743 9.53864 95.4925 9.93686C97.5822 10.9539 97.7723 11.171 97.6522 13.4013L97.8968 13.4425L98.308 10.3262L98.0821 10.2786C97.9003 10.844 97.6731 10.6711 97.0437 10.3648L92.6629 8.23277L92.5527 8.45935C93.3709 8.85758 93.5934 9.16827 93.2135 9.94874L90.0706 16.4065C89.6846 17.1996 89.328 17.2285 88.4846 16.818L88.3743 17.0446L93.3971 19.4891C94.0139 19.7893 94.2963 19.8489 93.9634 20.3408L94.1403 20.4892L96.3391 18.2429L96.1557 18.0758Z" fill="#D7FF39"/>
<path d="M115.888 24.2722L115.689 24.1554C115.572 24.3545 115.225 24.2491 114.755 23.7884L111.386 20.4855C110.916 20.0249 110.784 19.6995 111.001 19.5587L110.88 19.3619L108.161 20.6957L108.282 20.9123C110.046 20.1721 110.501 20.0488 111.61 21.1367C112.26 21.7738 112.462 22.2074 111.884 22.7972L106.856 27.9257C106.239 28.5555 105.782 28.3818 105.112 27.7252L104.945 27.8951L107.445 30.3454L107.611 30.1754C106.841 29.4207 106.769 29.075 107.386 28.4451L112.414 23.3166C113.002 22.7168 113.44 22.9303 114.1 23.5771C115.209 24.665 115.105 25.1314 114.39 26.9007L114.609 27.0173L115.888 24.2722Z" fill="#D7FF39"/>
<path d="M124.073 36.4489L122.127 33.5395L121.929 33.6718C122.451 34.4516 122.537 34.9329 121.804 35.4232L119.162 37.1898L116.306 32.9188L118.947 31.1522C119.681 30.6619 120.007 30.7973 120.606 31.6934L120.804 31.5611L118.858 28.6517L118.661 28.784C119.182 29.5637 119.268 30.0451 118.535 30.5354L112.576 34.5199C111.843 35.0102 111.431 34.7468 110.91 33.9671L110.712 34.0994L112.658 37.0088L112.855 36.8765C112.256 35.9804 112.256 35.627 112.989 35.1367L116.05 33.09L118.906 37.361L115.845 39.4078C115.112 39.898 114.7 39.6346 114.178 38.8549L113.981 38.9872L115.926 41.8966L116.124 41.7643C115.525 40.8682 115.524 40.5148 116.257 40.0246L122.216 36.04C122.949 35.5497 123.275 35.6851 123.875 36.5812L124.073 36.4489Z" fill="#D7FF39"/>
<path d="M121.726 49.6083C119.493 49.5888 119.288 49.3855 118.137 46.589C117.743 45.6309 117.758 45.337 118.574 45.0014L121.94 43.6161L122.734 45.5451C122.968 46.1148 122.662 46.4376 121.73 46.8212L121.815 47.0284L124.689 45.8456L124.604 45.6384C123.737 45.9954 123.238 46.0341 122.987 45.4256L122.199 43.5095L125.215 42.2682C126.018 41.9378 126.297 42.2471 126.643 43.0886C127.528 45.2377 127.525 45.5263 125.952 47.1122L126.108 47.3057L128.487 45.2516L128.35 45.0658C127.838 45.3672 127.783 45.087 127.517 44.4397L125.663 39.9342L125.43 40.0302C125.776 40.8717 125.736 41.2517 124.933 41.582L118.292 44.3152C117.476 44.6508 117.19 44.4353 116.833 43.5679L116.6 43.6638L118.726 48.8294C118.987 49.4638 119.159 49.6961 118.583 49.8422L118.616 50.0707L121.752 49.855L121.726 49.6083Z" fill="#D7FF39"/>
<path d="M131.302 59.303L131.065 59.3224C131.139 60.2294 130.982 60.7198 130.103 60.7917L122.959 61.3758C122.08 61.4476 121.847 61.0032 121.772 60.0822L121.534 60.1016L121.824 63.6458L122.061 63.6264C121.969 62.4962 122.14 62.1872 123.019 62.1153L125.894 61.8803C125.89 62.3442 125.808 62.7161 125.889 63.7068C126.087 66.1347 127.501 66.9321 128.994 66.8101C130.836 66.6595 131.773 65.0658 131.61 63.0704L131.302 59.303ZM126.168 63.684C126.087 62.6933 126.169 62.3214 126.173 61.8575L130.164 61.5312C131.043 61.4593 131.271 61.848 131.369 63.048C131.505 64.7084 130.59 65.8929 128.888 66.0321C127.479 66.1473 126.325 65.6095 126.168 63.684Z" fill="#D7FF39"/>
<path d="M126.45 74.7969C126.508 76.3403 127.258 77.5142 128.648 77.6782C130.052 77.8439 131.092 76.7965 131.341 74.6832L131.789 70.8875L131.553 70.8596C131.443 71.7912 131.196 72.2131 130.278 72.1048L123.215 71.2715C122.339 71.1682 122.183 70.6987 122.293 69.7671L122.057 69.7392L121.647 73.2151L121.883 73.243C122.009 72.1725 122.238 71.9034 123.128 72.0084L126.674 72.4267L126.498 73.9144L121.156 77.3723L120.94 79.3204L121.163 79.3467C121.304 78.151 122.003 77.7259 124.355 76.185L126.45 74.7969ZM130.191 72.8417C131.165 72.9566 131.269 73.2649 131.154 74.2382C130.908 76.3237 129.88 77.0341 128.67 76.8914C127.391 76.7405 126.633 75.6361 126.827 73.9955L127.007 72.4661L130.191 72.8417Z" fill="#D7FF39"/>
<path d="M124.854 83.1801C122.08 82.2078 119.295 83.6352 118.378 86.2512C117.554 88.603 118.807 91.5489 121.581 92.5211C124.435 93.5212 127.146 92.2609 128.063 89.6449C128.887 87.2931 127.748 84.194 124.854 83.1801ZM124.563 84.0124C127.39 85.0032 128.514 87.3848 127.759 89.5384C127.009 91.6788 124.7 92.6796 121.873 91.6888C119.125 90.7258 117.932 88.4981 118.682 86.3577C119.432 84.2173 121.815 83.0494 124.563 84.0124Z" fill="#D7FF39"/>
<path d="M123.623 98.7148L123.417 98.5961C122.949 99.409 122.556 99.6995 121.791 99.2595L114.766 95.2153C113.189 94.3073 112.802 93.6323 113.158 93.0135C113.452 92.5039 113.985 92.9241 114.292 92.3902C114.425 92.1597 114.301 91.9266 114.082 91.8009C113.755 91.6123 113.422 91.9377 113.157 92.3988C112.353 93.7941 113.013 95.0621 114.505 95.9212L121.421 99.9025C122.185 100.343 122.209 100.695 121.671 101.629L121.877 101.748L123.623 98.7148Z" fill="#D7FF39"/>
<path d="M108.618 107.013C107.591 105.029 107.675 104.753 109.609 102.429C110.271 101.632 110.538 101.508 111.216 102.072L114.015 104.4L112.68 106.004C112.287 106.477 111.858 106.358 111.083 105.713L110.94 105.885L113.329 107.873L113.472 107.701C112.751 107.101 112.484 106.678 112.905 106.172L114.23 104.579L116.738 106.666C117.405 107.221 117.262 107.612 116.68 108.311C115.193 110.098 114.937 110.231 112.8 109.582L112.702 109.809L115.63 110.952L115.73 110.744C115.224 110.433 115.446 110.253 115.894 109.715L119.01 105.97L118.816 105.809C118.234 106.508 117.879 106.65 117.212 106.095L111.691 101.502C111.013 100.938 111.07 100.585 111.67 99.8636L111.476 99.7024L107.904 103.997C107.465 104.524 107.34 104.784 106.941 104.343L106.755 104.48L108.412 107.151L108.618 107.013Z" fill="#D7FF39"/>
<path d="M99.0096 114.347C99.0532 112.928 99.3188 111.851 100.584 110.833C102.307 109.446 105.244 109.633 107.044 111.869C108.712 113.941 108.65 116.722 106.797 118.214C106.142 118.741 105.786 118.902 105.236 119.022C104.299 119.219 103.491 118.953 102.442 118.342L102.316 118.587L104.805 120.339L104.944 120.155C104.716 119.872 106.054 119.19 106.948 118.47C108.944 116.863 109.445 113.602 107.654 111.377C105.767 109.032 102.705 108.712 100.404 110.564C99.1714 111.557 98.7835 112.66 98.7319 114.337L99.0096 114.347Z" fill="#D7FF39"/>
<path d="M93.0771 127.001L93.2512 126.849C93.0995 126.675 93.3099 126.379 93.8959 126.08L98.0981 123.935C98.6842 123.635 99.0346 123.614 99.0993 123.864L99.3243 123.812L98.9236 120.81L98.6798 120.856C98.8209 122.764 98.7935 123.234 97.4094 123.94C96.5989 124.354 96.1235 124.408 95.748 123.672L92.4826 117.276C92.0816 116.49 92.3915 116.112 93.227 115.685L93.1188 115.473L90.0014 117.065L90.1096 117.277C91.0698 116.787 91.4207 116.827 91.8217 117.613L95.0871 124.01C95.469 124.758 95.1275 125.105 94.3045 125.525C92.9204 126.232 92.5114 125.985 91.061 124.745L90.8808 124.915L93.0771 127.001Z" fill="#D7FF39"/>
<path d="M79.4624 124.511L79.3565 123.919L75.5804 124.594L75.6863 125.186L79.4624 124.511Z" fill="#D7FF39"/>
</svg>
