<svg width="32" height="36" viewBox="0 0 32 36" fill="none" xmlns="http://www.w3.org/2000/svg">
<path fill-rule="evenodd" clip-rule="evenodd" d="M0 34.6023C1.27894 35.0839 2.86904 35.476 4.84772 35.476C6.9262 35.476 8.76907 34.9892 10.3057 34.1521C13.4411 32.454 15.3082 29.3007 15.3082 25.8411C15.2978 23.6102 14.5803 21.9609 13.4323 20.6781C12.2154 19.3111 10.5087 18.3605 8.64786 17.565H24.732V30.2205C24.732 33.2521 23.1947 33.9278 19.9701 33.9278V34.7429H32V33.9278C28.2927 33.9278 27.2845 33.2521 27.2845 30.2205V5.5958C27.2845 2.56418 28.2927 1.89206 32 1.89206V1.07339H19.9701V1.89206C23.1876 1.89206 24.732 2.56418 24.732 5.5958V16.5175H8.19585C6.30109 16.505 2.19679 14.9774 1.31613 14.6413C1.2599 14.6149 1.20372 14.5884 1.14759 14.5619V14.5747C0.746492 14.3709 0.362414 14.1559 0 13.926V16.8229C1.26462 17.408 2.63568 17.8868 3.99515 18.3616C8.4777 19.9271 12.8343 21.4487 12.8343 26.5885C12.8343 28.2606 12.4713 29.7037 11.81 30.8798C10.5266 33.1403 8.13571 34.4068 5.10156 34.4068C3.76577 34.4283 2.43601 34.2228 1.16904 33.799V33.8336C0.759611 33.6911 0.369973 33.5229 0 33.329V34.6023ZM0 1.26742V2.64671C1.25831 1.77614 2.82526 1.2309 4.59747 1.2309C9.84202 1.2309 12.9702 3.97294 12.9702 10.5653H13.9819L13.9816 10.5507H13.9891L13.7924 0.351171H12.8308L12.8277 0.362174H12.8272C12.8203 0.387121 12.813 0.411499 12.8054 0.43532C12.3849 1.72637 10.9451 1.3547 9.0655 0.869525C7.86694 0.560143 6.48958 0.204605 5.08369 0.204605C3.74927 0.198413 2.42219 0.402302 1.15117 0.808784V0.822279C0.751426 0.952523 0.367542 1.10164 0 1.26742Z" fill="#E5E5E5"/>
</svg>
