<svg width="135" height="135" viewBox="0 0 135 135" fill="none" xmlns="http://www.w3.org/2000/svg">
<path d="M66.6156 129.379C66.5727 130.4 65.5903 131.438 64.2475 131.381C62.7229 131.317 61.8471 130.482 61.9276 128.566L61.6339 128.553L61.5653 131.521L61.845 131.533C62.0545 130.883 63.0322 131.625 64.0953 131.669C66.0536 131.751 67.2733 130.401 67.3203 129.282C67.4654 125.828 62.036 126.987 62.1652 123.909C62.2252 122.483 63.1702 121.668 64.513 121.724C66.3874 121.803 67.3195 122.963 67.3758 125.291L67.6136 125.301L67.674 122.529L67.6975 121.97L67.4317 121.959C67.1808 122.929 66.6101 121.504 64.5959 121.419C62.7635 121.342 61.5059 122.593 61.4431 124.089C61.3038 127.404 66.7355 126.525 66.6156 129.379Z" fill="#D7FF39"/>
<path d="M51.0223 121.873C52.3234 120.058 52.6075 120.007 55.5569 120.675C56.5673 120.904 56.7989 121.086 56.6041 121.946L55.8003 125.496L53.7658 125.035C53.165 124.899 53.0771 124.463 53.2997 123.48L53.0813 123.431L52.3949 126.462L52.6134 126.511C52.8205 125.596 53.0758 125.166 53.7176 125.312L55.7384 125.769L55.018 128.951C54.8264 129.797 54.4131 129.847 53.5256 129.646C51.259 129.133 51.0243 128.965 50.6322 126.766L50.3846 126.782L50.6955 129.91L50.9264 129.905C50.9743 129.312 51.235 129.429 51.9177 129.584L56.6694 130.659L56.7251 130.414C55.8376 130.213 55.55 129.961 55.7417 129.114L57.3278 122.11C57.5226 121.25 57.8632 121.14 58.778 121.347L58.8336 121.101L53.3856 119.868C52.7165 119.716 52.428 119.723 52.6397 119.168L52.4336 119.064L50.8056 121.753L51.0223 121.873Z" fill="#D7FF39"/>
<path d="M40.7925 117.642C42.4201 116.112 42.7086 116.118 45.4732 117.343C46.4203 117.763 46.6124 117.986 46.255 118.792L44.7798 122.12L42.8728 121.275C42.3096 121.025 42.3078 120.58 42.7163 119.659L42.5115 119.568L41.252 122.409L41.4567 122.5C41.8369 121.642 42.1706 121.27 42.7721 121.536L44.6663 122.376L43.3444 125.358C42.9926 126.152 42.5775 126.121 41.7456 125.752C39.621 124.81 39.4232 124.6 39.4637 122.367L39.2177 122.334L38.918 125.463L39.1454 125.503C39.3069 124.931 39.5402 125.096 40.1802 125.38L44.6341 127.354L44.7363 127.124C43.9043 126.755 43.6709 126.452 44.0227 125.659L46.9333 119.093C47.2907 118.287 47.6461 118.245 48.5036 118.625L48.6057 118.395L43.499 116.131C42.8719 115.853 42.5875 115.804 42.9026 115.3L42.7205 115.158L40.6033 117.482L40.7925 117.642Z" fill="#D7FF39"/>
<path d="M20.6854 111.987L20.8881 112.098C20.9986 111.895 21.3493 111.99 21.8335 112.435L25.3051 115.63C25.7893 116.076 25.9314 116.397 25.7196 116.544L25.8465 116.737L28.5222 115.318L28.3945 115.105C26.654 115.901 26.2039 116.039 25.0604 114.986C24.3908 114.37 24.1749 113.943 24.7343 113.335L29.5977 108.051C30.195 107.402 30.6574 107.561 31.3476 108.196L31.5087 108.021L28.9333 105.651L28.7722 105.826C29.5654 106.556 29.649 106.899 29.0517 107.548L24.1883 112.833C23.6195 113.451 23.1752 113.251 22.4953 112.626C21.3519 111.573 21.4414 111.104 22.1002 109.313L21.8777 109.203L20.6854 111.987Z" fill="#D7FF39"/>
<path d="M12.0404 99.9471L14.0695 102.799L14.2634 102.661C13.7196 101.897 13.6196 101.418 14.3383 100.907L16.9277 99.0644L19.9064 103.251L17.3169 105.093C16.5982 105.605 16.2681 105.479 15.6432 104.6L15.4492 104.738L17.4783 107.59L17.6722 107.452C17.1284 106.688 17.0284 106.209 17.7471 105.698L23.5876 101.542C24.3063 101.031 24.7257 101.282 25.2695 102.047L25.4634 101.909L23.4344 99.0569L23.2405 99.1949C23.8654 100.073 23.8761 100.426 23.1575 100.938L20.1573 103.072L17.1787 98.8858L20.1788 96.7513C20.8975 96.2399 21.3169 96.4913 21.8607 97.2556L22.0546 97.1177L20.0256 94.2658L19.8317 94.4038C20.4566 95.2822 20.4673 95.6353 19.7487 96.1467L13.9081 100.302C13.1895 100.813 12.8593 100.688 12.2344 99.8092L12.0404 99.9471Z" fill="#D7FF39"/>
<path d="M13.9555 86.6033C16.1887 86.5637 16.3988 86.7616 17.6231 89.5266C18.0426 90.4739 18.0351 90.7682 17.2286 91.1253L13.9003 92.599L13.0557 90.6917C12.8063 90.1284 13.1039 89.7976 14.0255 89.3895L13.9348 89.1847L11.093 90.443L11.1837 90.6479C12.0414 90.2681 12.5389 90.2162 12.8054 90.8178L13.6443 92.7124L10.6616 94.0331C9.86793 94.3846 9.5812 94.0828 9.21276 93.2507C8.27182 91.1257 8.26653 90.8372 9.79686 89.2103L9.6365 89.021L7.3123 91.1372L7.4542 91.3194C7.95784 91.0045 8.02 91.2832 8.30341 91.9232L10.276 96.378L10.5064 96.276C10.138 95.4439 10.1683 95.063 10.962 94.7116L17.529 91.8037C18.3355 91.4466 18.6266 91.6546 19.0064 92.5122L19.2368 92.4102L16.9752 87.3025C16.6974 86.6753 16.52 86.4476 17.0917 86.2863L17.0522 86.0589L13.9231 86.3573L13.9555 86.6033Z" fill="#D7FF39"/>
<path d="M3.23682 64.887L3.47454 64.8755C3.39512 63.2394 4.3426 63.1233 5.01069 63.3151L11.948 65.3191L4.43277 68.4452C3.89691 68.6674 3.62186 67.9099 3.56823 66.8052L3.33051 66.8167L3.52126 70.7461L3.75898 70.7346C3.71214 69.7697 3.96765 69.547 4.57138 69.2795L5.71097 68.7896L12.2455 70.8692L4.97882 74.2075C4.30721 74.5204 3.9063 73.769 3.85267 72.6643L3.61495 72.6758L3.8057 76.6052L4.04343 76.5937C3.99658 75.6288 4.25277 75.4201 4.81455 75.1546L13.3545 71.1938L13.3389 70.8722L6.1503 68.6001L13.0844 65.6284L13.0687 65.3067L5.1789 63.0266C4.12715 62.7273 3.34488 62.2046 3.29668 61.2118L3.05896 61.2233L3.23682 64.887Z" fill="#D7FF39"/>
<path d="M12.6242 52.3228C14.4753 53.5726 14.5338 53.8553 13.9486 56.8221C13.7481 57.8385 13.573 58.0751 12.7077 57.9044L9.1365 57.2001L9.54015 55.1535C9.65935 54.5492 10.0929 54.4492 11.0818 54.6442L11.1252 54.4244L8.07593 53.823L8.03259 54.0428C8.95286 54.2243 9.39006 54.4675 9.26273 55.1131L8.86179 57.1459L5.66144 56.5147C4.80985 56.3467 4.74835 55.935 4.92444 55.0422C5.37415 52.7622 5.5355 52.5229 7.72257 52.0695L7.69995 51.8225L4.58196 52.2206L4.59356 52.4512C5.1867 52.4826 5.07758 52.7465 4.94212 53.4332L3.99936 58.2132L4.2466 58.2619C4.42269 57.3691 4.66627 57.0747 5.51786 57.2427L12.5641 58.6324C13.4294 58.8031 13.5484 59.1405 13.3669 60.0608L13.6141 60.1095L14.6951 54.6291C14.8278 53.9561 14.8133 53.6678 15.3739 53.864L15.4722 53.6551L12.7389 52.1028L12.6242 52.3228Z" fill="#D7FF39"/>
<path d="M15.9757 42.3221C14.2092 41.6116 12.8756 42.9766 12.4839 43.8754C12.6412 43.1841 12.3187 41.8472 11.2926 41.4346C10.0717 40.9435 8.8514 41.4638 8.20887 43.0614L6.97083 46.1398L7.17865 46.2234C7.5182 45.3791 7.83841 45.1457 8.65671 45.4748L15.307 48.1494C16.1253 48.4785 16.2 48.8556 15.8552 49.7129L16.0631 49.7965L17.4735 46.2895C18.0951 44.7438 17.8721 43.0847 15.9757 42.3221ZM8.93357 44.7864C8.06331 44.4364 8.11866 44.0362 8.44253 43.2308C8.97536 41.906 9.95066 41.6946 11.0157 42.123C12.0549 42.5409 12.63 43.5871 11.9196 45.3535L11.7002 45.8991L8.93357 44.7864ZM17.1354 46.3798C16.6443 47.6008 16.4152 47.7953 15.5969 47.4662L11.947 45.9983L12.3336 45.0372C13.0753 43.1927 14.2181 42.4149 15.6988 43.0105C17.4263 43.7052 17.7309 44.8991 17.1354 46.3798Z" fill="#D7FF39"/>
<path d="M14.0558 36.0092C13.1878 35.4697 12.7674 34.104 13.4769 32.9625C14.2825 31.6665 15.4406 31.3149 17.0696 32.3274L17.2248 32.0777L14.6745 30.5585L14.5266 30.7963C14.9894 31.2982 13.8628 31.7848 13.3011 32.6884C12.2664 34.3531 12.842 36.079 13.7932 36.6703C16.7301 38.4957 18.391 33.1982 21.0069 34.8241C22.2197 35.578 22.4646 36.8017 21.7551 37.9431C20.7648 39.5364 19.2962 39.7775 17.2411 38.6815L17.1155 38.8836L19.4993 40.2994L19.9749 40.595L20.1153 40.3691C19.3939 39.6734 20.9155 39.8774 21.9797 38.1652C22.9479 36.6075 22.4777 34.8977 21.2054 34.1069C18.3874 32.3553 16.4814 37.5169 14.0558 36.0092Z" fill="#D7FF39"/>
<path d="M20.1522 26.14C19.4828 25.5657 19.5254 25.215 20.2273 24.3968L20.0467 24.2418L17.7678 26.8983L17.9485 27.0533C18.5592 26.3413 18.9997 26.1289 19.6691 26.7032L25.1096 31.3702C25.7791 31.9445 25.6361 32.4121 25.0254 33.124L25.206 33.279L27.4849 30.6225L27.3042 30.4675C26.6023 31.2857 26.2622 31.3813 25.5927 30.807L20.1522 26.14Z" fill="#D7FF39"/>
<path d="M29.8728 14.7305L29.7353 14.916C29.9208 15.0534 29.7787 15.3877 29.2704 15.8055L25.6258 18.8016C25.1175 19.2194 24.7798 19.3157 24.6631 19.0855L24.4545 19.1845L25.4894 22.0308L25.7177 21.9338C25.1707 20.0999 25.0968 19.6351 26.2972 18.6483C27.0002 18.0704 27.453 17.9157 27.9775 18.5538L32.5382 24.1019C33.0983 24.7832 32.8766 25.2191 32.152 25.8148L32.3032 25.9986L35.0069 23.7761L34.8558 23.5922C34.023 24.2768 33.6715 24.3121 33.1114 23.6307L28.5507 18.0826C28.0173 17.4337 28.2764 17.0214 28.9901 16.4346C30.1906 15.4478 30.6431 15.6014 32.3256 16.5018L32.465 16.2966L29.8728 14.7305Z" fill="#D7FF39"/>
<path d="M44.6506 15.1956C44.8455 17.4206 44.6627 17.644 41.9895 19.0578C41.0737 19.5421 40.7797 19.5551 40.3673 18.7754L38.6655 15.5577L40.5095 14.5825C41.054 14.2945 41.4047 14.5683 41.876 15.4593L42.074 15.3546L40.621 12.6072L40.4229 12.7119C40.8615 13.5411 40.9479 14.0339 40.3662 14.3415L38.5346 15.3102L37.0096 12.4267C36.6037 11.6594 36.8848 11.3523 37.6892 10.9269C39.7436 9.84037 40.0311 9.81502 41.7606 11.2284L41.9382 11.0553L39.6654 8.88398L39.4936 9.03821C39.8427 9.51872 39.569 9.60012 38.9502 9.92738L34.6435 12.2052L34.7613 12.4279C35.5657 12.0025 35.9478 12.0063 36.3536 12.7736L39.7114 19.1223C40.1238 19.902 39.9366 20.2069 39.1074 20.6454L39.2252 20.8682L44.1631 18.2566C44.7695 17.9359 44.9843 17.7431 45.185 18.3021L45.4092 18.2469L44.8937 15.1462L44.6506 15.1956Z" fill="#D7FF39"/>
<path d="M54.6317 10.5725L54.7481 11.1631L58.5117 10.4214L58.3953 9.83075L54.6317 10.5725Z" fill="#D7FF39"/>
<path d="M71.12 5.42481C71.2051 4.40637 72.2297 3.41025 73.569 3.5222C75.0897 3.64932 75.93 4.52035 75.7703 6.43169L76.0633 6.45618L76.2547 3.49383L75.9757 3.4705C75.7395 4.11106 74.7933 3.32952 73.733 3.24089C71.7798 3.07762 70.5052 4.37596 70.4119 5.49206C70.1239 8.93805 75.5966 8.00469 75.3401 11.074C75.2211 12.497 74.2431 13.2723 72.9038 13.1603C71.0343 13.004 70.151 11.8063 70.1912 9.47753L69.954 9.4577L69.7789 12.2247L69.7322 12.7828L69.9973 12.8049C70.2882 11.8458 70.7994 13.2935 72.8084 13.4614C74.636 13.6142 75.9443 12.417 76.0691 10.9242C76.3455 7.61772 70.8821 8.27089 71.12 5.42481Z" fill="#D7FF39"/>
<path d="M86.3888 13.5695C85.0137 15.3296 84.7276 15.3682 81.8085 14.5789C80.8084 14.3084 80.5845 14.1174 80.8147 13.266L81.7649 9.75216L83.7786 10.2967C84.3732 10.4575 84.4429 10.8969 84.1798 11.87L84.3961 11.9284L85.2073 8.92818L84.9911 8.86971C84.7463 9.77519 84.4733 10.1945 83.8382 10.0227L81.838 9.48186L82.6895 6.33296C82.9161 5.49505 83.331 5.46223 84.2095 5.69977C86.4529 6.30641 86.6804 6.48397 86.9811 8.69719L87.2292 8.69174L87.048 5.55366L86.8172 5.54925C86.7448 6.13879 86.4891 6.01164 85.8134 5.82892L81.1103 4.55716L81.0445 4.80043C81.9229 5.03797 82.1998 5.30136 81.9732 6.13927L80.0985 13.0723C79.8682 13.9237 79.5234 14.019 78.6179 13.7741L78.5521 14.0174L83.9445 15.4755C84.6067 15.6546 84.8953 15.6601 84.6607 16.2058L84.8623 16.3183L86.6002 13.6992L86.3888 13.5695Z" fill="#D7FF39"/>
<path d="M96.4344 18.2209C94.7449 19.6818 94.4568 19.6645 91.7454 18.3255C90.8165 17.8668 90.6338 17.6361 91.0243 16.8452L92.636 13.5815L94.5064 14.5051C95.0587 14.7778 95.0421 15.2225 94.5958 16.1263L94.7966 16.2255L96.1728 13.4387L95.9719 13.3395C95.5566 14.1806 95.2078 14.5392 94.6178 14.2478L92.76 13.3304L94.2043 10.4056C94.5886 9.62732 95.0021 9.67536 95.818 10.0783C97.9018 11.1073 98.0907 11.3255 97.9578 13.5551L98.2021 13.5977L98.6312 10.4838L98.4056 10.4348C98.2206 10.9993 97.9943 10.8251 97.3667 10.5151L92.9983 8.35795L92.8867 8.5839C93.7026 8.98683 93.9233 9.29878 93.539 10.0771L90.359 16.5167C89.9685 17.3075 89.6117 17.3343 88.7707 16.919L88.6591 17.145L93.6677 19.6183C94.2828 19.922 94.5648 19.9832 94.2292 20.4733L94.4052 20.6227L96.6168 18.389L96.4344 18.2209Z" fill="#D7FF39"/>
<path d="M116.29 24.7038L116.092 24.585C115.973 24.783 115.627 24.6741 115.162 24.2089L111.825 20.873C111.36 20.4077 111.231 20.0811 111.449 19.9425L111.33 19.7445L108.598 21.0514L108.717 21.2692C110.489 20.5464 110.944 20.4276 112.043 21.5263C112.687 22.1698 112.885 22.6053 112.301 23.1894L107.223 28.2682C106.599 28.8919 106.144 28.7138 105.48 28.0506L105.312 28.2189L107.787 30.6936L107.955 30.5253C107.193 29.7631 107.124 29.4166 107.747 28.7929L112.825 23.7141C113.419 23.1201 113.855 23.3378 114.508 23.9911C115.607 25.0899 115.498 25.5552 114.766 27.3174L114.984 27.4361L116.29 24.7038Z" fill="#D7FF39"/>
<path d="M124.429 37.0913L122.52 34.1579L122.32 34.2877C122.832 35.0739 122.912 35.5563 122.173 36.0374L119.509 37.7709L116.706 33.4647L119.37 31.7311C120.109 31.25 120.434 31.3895 121.022 32.293L121.221 32.1632L119.312 29.2298L119.113 29.3596C119.624 30.1457 119.704 30.6281 118.965 31.1092L112.958 35.0193C112.218 35.5004 111.81 35.2319 111.298 34.4457L111.099 34.5756L113.008 37.509L113.207 37.3791C112.619 36.4757 112.623 36.1223 113.362 35.6412L116.448 33.6327L119.251 37.939L116.165 39.9475C115.426 40.4286 115.017 40.16 114.505 39.3739L114.306 39.5037L116.215 42.4371L116.415 42.3073C115.827 41.4038 115.831 41.0505 116.57 40.5693L122.577 36.6593C123.317 36.1781 123.641 36.3176 124.229 37.2211L124.429 37.0913Z" fill="#D7FF39"/>
<path d="M121.963 50.3443C119.731 50.2913 119.529 50.0849 118.42 47.2715C118.04 46.3077 118.06 46.014 118.88 45.6906L122.267 44.3559L123.032 46.2966C123.258 46.8697 122.947 47.1879 122.009 47.5575L122.091 47.7659L124.982 46.6263L124.9 46.4179C124.028 46.7619 123.528 46.7931 123.287 46.1809L122.527 44.2533L125.562 43.0572C126.37 42.7389 126.644 43.0523 126.977 43.8989C127.829 46.061 127.823 46.3496 126.226 47.9117L126.379 48.1075L128.789 46.0893L128.654 45.9014C128.138 46.1952 128.088 45.9141 127.831 45.2629L126.044 40.7302L125.81 40.8226C126.144 41.6693 126.098 42.0486 125.29 42.3669L118.608 45.0003C117.788 45.3237 117.505 45.1039 117.162 44.2312L116.927 44.3236L118.975 49.5206C119.227 50.1588 119.395 50.3936 118.817 50.5311L118.847 50.76L121.986 50.5913L121.963 50.3443Z" fill="#D7FF39"/>
<path d="M131.774 72.486L131.536 72.4877C131.548 74.1257 130.596 74.2024 129.936 73.9831L123.088 71.6936L130.726 68.8814C131.271 68.6815 131.514 69.4498 131.522 70.5558L131.76 70.5541L131.732 66.6202L131.494 66.6219C131.501 67.5879 131.237 67.7997 130.622 68.0421L129.463 68.4843L123.021 66.1359L130.419 63.1014C131.103 62.8166 131.473 63.584 131.481 64.6899L131.719 64.6882L131.691 60.7543L131.453 60.756C131.46 61.722 131.195 61.9199 130.623 62.1619L121.926 65.7657L121.928 66.0877L129.017 68.6555L121.966 71.3376L121.968 71.6595L129.756 74.2644C130.795 74.607 131.555 75.1617 131.562 76.1556L131.8 76.154L131.774 72.486Z" fill="#D7FF39"/>
<path d="M121.874 84.6504C120.076 83.325 120.03 83.0401 120.737 80.1001C120.98 79.0928 121.164 78.8637 122.022 79.07L125.561 79.9217L125.073 81.9498C124.929 82.5487 124.491 82.6306 123.511 82.3948L123.459 82.6126L126.481 83.3397L126.533 83.122C125.621 82.9025 125.194 82.6414 125.348 82.0017L125.833 79.9872L129.004 80.7504C129.848 80.9535 129.893 81.3673 129.68 82.2521C129.136 84.5116 128.965 84.744 126.761 85.1064L126.773 85.3542L129.905 85.0854L129.903 84.8546C129.312 84.7987 129.432 84.5395 129.596 83.859L130.735 79.1222L130.49 79.0632C130.278 79.948 130.022 80.2321 129.178 80.029L122.195 78.3486C121.338 78.1423 121.233 77.8002 121.452 76.8883L121.207 76.8293L119.9 82.2603C119.74 82.9272 119.743 83.2158 119.191 82.9966L119.084 83.2013L121.75 84.8654L121.874 84.6504Z" fill="#D7FF39"/>
<path d="M118.112 94.5045C119.847 95.2874 121.236 93.9789 121.665 93.0971C121.479 93.7812 121.746 95.1303 122.754 95.5851C123.953 96.1263 125.194 95.657 125.902 94.0873L127.267 91.0628L127.063 90.9707C126.688 91.8002 126.359 92.0201 125.555 91.6574L119.021 88.7098C118.217 88.3471 118.158 87.9672 118.538 87.1249L118.334 87.0328L116.779 90.4784C116.094 91.997 116.248 93.6639 118.112 94.5045ZM125.25 92.3338C126.105 92.7195 126.033 93.1171 125.676 93.9084C125.089 95.21 124.105 95.3808 123.059 94.9087C122.038 94.4482 121.507 93.3791 122.29 91.6435L122.531 91.1075L125.25 92.3338ZM117.121 90.4021C117.662 89.2026 117.899 89.0177 118.703 89.3804L122.289 90.9981L121.863 91.9425C121.045 93.7546 119.872 94.4844 118.417 93.8281C116.719 93.0624 116.465 91.857 117.121 90.4021Z" fill="#D7FF39"/>
<path d="M119.769 100.89C120.614 101.465 120.978 102.847 120.221 103.958C119.363 105.22 118.191 105.523 116.606 104.444L116.44 104.687L118.925 106.311L119.083 106.079C118.641 105.558 119.787 105.119 120.386 104.239C121.488 102.619 120.985 100.871 120.059 100.24C117.2 98.295 115.321 103.519 112.775 101.786C111.594 100.983 111.4 99.7502 112.157 98.639C113.212 97.0881 114.689 96.9081 116.697 98.0883L116.831 97.8915L114.508 96.3782L114.045 96.0632L113.895 96.2831C114.587 97.008 113.076 96.7412 111.941 98.4079C110.909 99.9241 111.308 101.652 112.547 102.495C115.29 104.362 117.408 99.2833 119.769 100.89Z" fill="#D7FF39"/>
<path d="M113.269 110.499C113.914 111.1 113.857 111.449 113.122 112.237L113.296 112.4L115.682 109.84L115.508 109.678C114.869 110.364 114.42 110.558 113.775 109.956L108.532 105.068C107.887 104.466 108.049 104.005 108.689 103.319L108.515 103.157L106.128 105.717L106.302 105.879C107.037 105.09 107.381 105.009 108.026 105.611L113.269 110.499Z" fill="#D7FF39"/>
<path d="M103.084 121.496L103.229 121.316C103.049 121.171 103.205 120.843 103.73 120.447L107.496 117.604C108.021 117.208 108.362 117.125 108.47 117.36L108.682 117.27L107.766 114.383L107.534 114.471C108.004 116.326 108.059 116.793 106.819 117.729C106.092 118.278 105.634 118.413 105.136 117.754L100.809 112.022C100.278 111.318 100.517 110.892 101.266 110.327L101.122 110.137L98.3289 112.245L98.4722 112.435C99.3326 111.786 99.6854 111.765 100.217 112.469L104.544 118.201C105.05 118.872 104.774 119.273 104.036 119.83C102.796 120.766 102.35 120.594 100.707 119.624L100.559 119.824L103.084 121.496Z" fill="#D7FF39"/>
<path d="M88.3382 120.42C88.2356 118.189 88.4275 117.973 91.1569 116.671C92.092 116.225 92.3863 116.224 92.766 117.02L94.3331 120.306L92.4503 121.204C91.8943 121.469 91.5553 121.181 91.1213 120.271L90.9191 120.368L92.2572 123.173L92.4594 123.076C92.0555 122.23 91.9896 121.734 92.5835 121.451L94.4537 120.559L95.858 123.503C96.2317 124.286 95.9382 124.581 95.1168 124.973C93.0192 125.974 92.7309 125.987 91.0615 124.503L90.8768 124.669L93.0578 126.933L93.2358 126.786C92.9069 126.291 93.1837 126.221 93.8155 125.92L98.2129 123.822L98.1044 123.595C97.283 123.986 96.9014 123.967 96.5277 123.183L93.4357 116.701C93.056 115.905 93.2557 115.608 94.1023 115.204L93.9938 114.977L88.952 117.382C88.3328 117.677 88.1102 117.861 87.9329 117.294L87.7066 117.34L88.0932 120.459L88.3382 120.42Z" fill="#D7FF39"/>
<path d="M78.1745 124.626L78.0827 124.031L74.2916 124.616L74.3835 125.211L78.1745 124.626Z" fill="#D7FF39"/>
</svg>
